<svg width="80" height="80" fill="none" xmlns="http://www.w3.org/2000/svg"><g clip-path="url(#clip0)"><path d="M62.72 67.571c0 4.334-10.038 7.847-22.42 7.847-12.384 0-22.423-3.513-22.423-7.847 0-4.334 10.038-7.848 22.423-7.848 12.382 0 22.42 3.515 22.42 7.848z" fill="#9CDAF1"/><path d="M34.206 75.128v-5.594c0-.722-.13-1.326-.35-1.837 1.447 1.124 1.545 3.947 1.545 3.947v3.589c1.302.101 2.646.163 4.022.181l-.037-3.571c-.199-4.882-4.383-5.48-4.383-5.48-1.53-.347-1.507.42-1.353.916-1.5-2.558-5.522-2.228-5.522-2.228-1.395.498-.1 1.395-.1 1.395 2.193.797 2.392 3.188 2.392 3.188v4.986c1.207.207 2.471.378 3.786.507zM51.841 65.049s-4.021-.331-5.522 2.228c.154-.496.178-1.264-1.352-.916 0 0-4.185.597-4.384 5.48l-.037 3.577a63.362 63.362 0 004.022-.142V71.64s.099-2.823 1.545-3.946c-.219.51-.35 1.114-.35 1.837v5.651a54.545 54.545 0 003.787-.461v-5.09s.2-2.392 2.391-3.189c0-.002 1.294-.899-.1-1.397v.003z" fill="#7DBBE6"/><path d="M79.869 35.041l.059-.293C73.35 33.433 66.6 33.42 62.517 33.59c.67-2.417.872-5.198.872-8.3 0-4.448-1.671-8.006-4.384-10.714.474-1.53 1.107-4.929-.633-9.28 0 0-3.069-.974-10.011 3.673-2.72-.68-5.614-1.016-8.513-1.016-3.189 0-6.412.406-9.417 1.23-7.164-4.887-10.327-3.885-10.327-3.885-2.064 5.162-.788 8.985-.4 9.934-2.427 2.618-3.908 5.961-3.908 10.06 0 3.094.352 5.87 1.213 8.282-4.119-.15-10.623-.092-16.966 1.176l.059.293c6.38-1.276 12.926-1.32 17.019-1.165.19.5.4.983.638 1.452-4.048.13-10.96.646-17.584 2.515l.082.287c6.676-1.883 13.648-2.386 17.656-2.508 2.419 4.508 7.187 7.42 15.67 8.334-1.204.81-2.432 2.185-2.93 4.512-1.64.785-6.834 2.7-9.95-2.66 0 0-1.745-3.189-5.084-3.439 0 0-3.239-.05-.223 2.019 0 0 2.167 1.021 3.662 4.859 0 0 1.95 6.545 11.364 4.445v6.762s-.2 2.391-2.392 3.188c0 0-1.295.897.1 1.394 0 0 6.078.499 6.078-4.483v-7.372s-.241-2.924 1.195-3.94v12.11s-.099 2.889-1.594 3.985c0 0-.997 1.793 1.196 1.295 0 0 4.184-.598 4.384-5.48l.094-12.255h1.006l.096 12.255c.199 4.882 4.384 5.48 4.384 5.48 2.191.498 1.195-1.295 1.195-1.295-1.495-1.096-1.594-3.986-1.594-3.986V49.346c1.436 1.118 1.196 3.835 1.196 3.835v7.373c0 4.982 6.077 4.483 6.077 4.483 1.394-.497.1-1.394.1-1.394-2.192-.797-2.391-3.189-2.391-3.189V50.79c0-3.769-1.587-5.765-3.14-6.818 9.048-.897 13.389-3.818 15.39-8.357 3.962.109 11.093.592 17.914 2.516l.082-.287c-6.783-1.913-13.867-2.408-17.87-2.525.19-.458.355-.935.502-1.426 4.064-.169 10.846-.166 17.448 1.153l-.01-.005z" fill="#000"/><path d="M54.542 25.08c1.948 1.766 3.088 3.898 3.088 6.194 0 10.724-7.994 11.015-17.854 11.015-9.862 0-17.856-1.485-17.856-11.015 0-2.281 1.124-4.4 3.049-6.158 3.21-2.93 8.643-1.378 14.806-1.378 6.136-.001 11.55-1.569 14.766 1.341v.002z" fill="#F4CBB2"/><path d="M33.836 31.82c0 2.954-1.663 5.348-3.715 5.348-2.051 0-3.715-2.394-3.715-5.348 0-2.953 1.664-5.346 3.715-5.346 2.052.002 3.715 2.393 3.715 5.346zm19.933 0c0 2.954-1.663 5.348-3.715 5.348-2.052 0-3.715-2.394-3.715-5.348 0-2.953 1.663-5.346 3.715-5.346 2.051.002 3.715 2.393 3.715 5.346z" fill="#fff"/><path d="M32.646 31.888c0 1.969-1.11 3.564-2.477 3.564-1.367 0-2.477-1.595-2.477-3.564 0-1.97 1.11-3.566 2.477-3.566 1.366 0 2.476 1.596 2.476 3.565zm19.93 0c0 1.969-1.11 3.564-2.477 3.564-1.366 0-2.476-1.595-2.476-3.564 0-1.97 1.109-3.566 2.476-3.566 1.366 0 2.476 1.596 2.476 3.565h.001zM39.831 37.499a.929.929 0 100-1.858.929.929 0 000 1.858zM37.663 38.92a.299.299 0 01.563-.2c.24.675.88 1.128 1.594 1.128.714 0 1.354-.453 1.594-1.128a.298.298 0 11.563.2 2.287 2.287 0 01-4.312.002l-.002-.003z" fill="#AD5C51"/><path d="M17.064 43.168c0 .248-.29.448-.648.448-.357 0-.648-.2-.648-.448s.29-.45.648-.45c.358 0 .648.201.648.45zm1.794.996c0 .248-.29.448-.648.448-.357 0-.648-.2-.648-.448s.29-.449.648-.449c.358 0 .648.2.648.45v-.001zm1.096 1.296c0 .248-.29.448-.648.448-.357 0-.648-.2-.648-.448s.291-.449.648-.449c.358 0 .648.2.648.45zm.997 1.495c0 .247-.29.447-.648.447-.358 0-.648-.2-.648-.447 0-.248.29-.45.648-.45.357 0 .648.201.648.45zm1.095 1.395c0 .248-.29.448-.648.448-.357 0-.648-.2-.648-.448s.29-.45.648-.45c.357 0 .648.201.648.45zm1.496 1.194c0 .248-.29.448-.648.448-.357 0-.648-.2-.648-.447 0-.248.291-.45.648-.45.358 0 .648.201.648.45zm2.092.798c0 .248-.29.448-.648.448-.357 0-.648-.2-.648-.448s.29-.449.648-.449c.358 0 .648.2.648.45zm2.084 0c0 .248-.29.448-.648.448-.358 0-.648-.2-.648-.448s.29-.449.648-.449c.357 0 .648.2.648.45zm2.113-.346c0 .248-.29.448-.648.448-.358 0-.648-.2-.648-.448s.29-.449.648-.449c.357 0 .648.2.648.45z" fill="#C3E4D8"/><path d="M14.685 44.498l-.647 2.255s-.17.815.6.96c.801-.017.735-.767.68-1.01l-.633-2.205z" fill="#9CDAF1"/></g><defs><clipPath id="clip0"><path fill="#fff" d="M0 5h80v70.501H0z"/></clipPath></defs></svg>